<svg xmlns="http://www.w3.org/2000/svg" viewBox="0 0 900 560">
  <defs>
    <pattern id="grid" width="72" height="72" patternUnits="userSpaceOnUse"><path d="M72 0H0V72" fill="none" stroke="#dfe6e3" stroke-width="1"/></pattern>
    <linearGradient id="water" x1="0" x2="1"><stop stop-color="#bfe0ef"/><stop offset="1" stop-color="#91c7e1"/></linearGradient>
  </defs>
  <rect width="900" height="560" rx="22" fill="#f8fbf8"/>
  <rect width="900" height="560" rx="22" fill="url(#grid)"/>
  <path d="M45 520V55L855 42V520Z" fill="#e8f1e2" stroke="#7caa76" stroke-width="3"/>
  <path d="M58 288H842M445 50V520" stroke="#bd9c74" stroke-width="14" stroke-linecap="round"/>
  <path d="M62 290C230 285 260 184 445 206c183 22 226 104 397 81" fill="none" stroke="#d0b68e" stroke-width="8" stroke-dasharray="13 10"/>
  <ellipse cx="445" cy="302" rx="155" ry="95" fill="url(#water)" stroke="#659bc1" stroke-width="3"/>
  <text x="445" y="310" text-anchor="middle" font-family="Arial" font-weight="700" font-size="28" fill="#36536b">CENTRAL HALL</text>
  <rect x="78" y="68" width="245" height="126" rx="15" fill="#d7e9dc" stroke="#72a486" stroke-width="3"/>
  <text x="103" y="104" font-family="Arial" font-weight="700" font-size="22" fill="#38534a">NORTH GALLERY</text>
  <rect x="580" y="68" width="235" height="125" rx="15" fill="#f0dbe8" stroke="#c77da7" stroke-width="3"/>
  <text x="605" y="104" font-family="Arial" font-weight="700" font-size="22" fill="#694258">EAST GALLERY</text>
  <rect x="80" y="386" width="240" height="112" rx="15" fill="#fff0d8" stroke="#d49b4b" stroke-width="3"/>
  <text x="103" y="423" font-family="Arial" font-weight="700" font-size="22" fill="#76552d">WEST GALLERY</text>
  <rect x="580" y="386" width="235" height="112" rx="15" fill="#e0e0ee" stroke="#8485b0" stroke-width="3"/>
  <text x="606" y="423" font-family="Arial" font-weight="700" font-size="22" fill="#48496d">SOUTH GALLERY</text>
  <path d="M380 520v-48h130v48" fill="#fff" stroke="#474c4f" stroke-width="3"/>
  <text x="445" y="548" text-anchor="middle" font-family="Arial" font-weight="700" font-size="17" fill="#303538">ENTRANCE</text>
  <path d="M450 20l-8 23h16z" fill="#34443c"/><text x="450" y="16" text-anchor="middle" font-family="Arial" font-size="13">N</text>
</svg>
